<?xml version="1.0" encoding="utf-8"?>
<!-- Generator: Adobe Illustrator 22.0.1, SVG Export Plug-In . SVG Version: 6.00 Build 0)  -->
<svg version="1.1" xmlns="http://www.w3.org/2000/svg" xmlns:xlink="http://www.w3.org/1999/xlink" x="0px" y="0px" width="159.3px"
	 height="31.9px" viewBox="0 0 159.3 31.9" style="enable-background:new 0 0 159.3 31.9;" xml:space="preserve">
<style type="text/css">
	.st0{fill:#FFFFFF;}
</style>
<g id="Layer_1">
	<path class="st0" d="M12.5,13.2l0-3.5c0-3.4-0.1-5.7-0.3-6.8C12,2.7,12,2.6,12,2.5c0-0.3,0.3-0.6,1-0.8c0.7-0.2,1.2-0.3,1.6-0.3
		c0.4,0,0.6,0.1,0.6,0.3c0,0,0,0.1-0.1,0.3c-0.4,2.4-0.7,6.2-0.7,11.4c0,3.6,0.2,6.1,0.6,7.7c0.1,0.3,0.1,0.4,0.1,0.4
		c0,0.4-0.4,0.7-1.3,1c-0.9,0.3-1.5,0.4-1.9,0.4c-0.6,0-1-0.1-1.2-0.4c-0.4-0.5-1.1-2.1-2.1-4.6c-1-2.5-1.8-4.9-2.5-7L5,7.6
		c0-0.1-0.1-0.1-0.1-0.1c-0.1,0-0.2,0.1-0.3,0.2C4.5,9.4,4.5,11.2,4.5,13c0,1.8,0,3.2,0,4.2c0,1,0.1,1.7,0.1,2.2
		c0,0.5,0.1,0.9,0.1,1.2c0,0.3,0.1,0.5,0.1,0.7c0,0.1,0,0.2,0,0.3c0,0.4-0.3,0.7-1,0.9s-1.2,0.3-1.7,0.3s-0.8-0.1-0.8-0.3
		c0-0.1,0-0.3,0.1-0.4s0.1-0.4,0.2-0.7c0.2-0.7,0.3-1.9,0.4-3.7c0.1-1.8,0.1-3.8,0.1-6.1s0-4-0.1-5C2.1,4.7,1.9,3.5,1.6,3
		C1.6,2.9,1.5,2.8,1.5,2.7c0-0.3,0.5-0.6,1.5-0.9c1-0.3,1.8-0.4,2.4-0.4c0.6,0,0.9,0,1,0c0.3,0,0.4,0.1,0.5,0.5
		c0.6,2,1.4,4.4,2.4,7.2c1,2.8,1.9,4.9,2.7,6.3c0.1,0.1,0.2,0.1,0.2,0.1C12.4,15.5,12.5,14.7,12.5,13.2z"/>
	<path class="st0" d="M32,3.3c-0.4,0.5-0.9,1-1.3,1.6c-0.5,0.6-1.2,1.7-2.3,3.3c-1.1,1.6-1.6,2.6-1.6,2.9l0.1,0.2
		c2.4,5.4,4.4,8.6,6.1,9.5c0.2,0.1,0.3,0.2,0.3,0.3c0,0.3-0.5,0.7-1.6,1.1c-0.6,0.2-1.2,0.3-1.7,0.3c-0.5,0-0.8,0-1-0.1
		c-0.2-0.1-0.4-0.3-0.6-0.5c-0.2-0.3-0.4-0.5-0.6-0.8s-0.4-0.7-0.6-1.2s-0.5-1-0.7-1.5s-0.5-1.1-0.9-1.9c-0.4-0.8-0.7-1.6-1-2.3
		C24.6,14,24.5,14,24.4,14c-0.1,0-0.2,0.1-0.2,0.2c-1.5,2.5-2.6,4.9-3.4,7.1c-0.1,0.4-0.5,0.8-1.3,1.1c-0.8,0.3-1.6,0.5-2.4,0.5
		c-0.9,0-1.3-0.1-1.3-0.4c0-0.1,0.1-0.2,0.2-0.3c0.1-0.1,0.3-0.2,0.4-0.4c0.2-0.1,0.5-0.5,1-1.1c0.5-0.6,1-1.2,1.5-1.9
		c1.4-1.9,2.8-4.3,4.2-7.2c0.1-0.1,0.1-0.2,0.1-0.3l-0.1-0.2c-1.5-3.7-2.9-6.2-4.1-7.5c-0.3-0.3-0.6-0.5-0.8-0.6
		C18,3,17.9,2.8,17.9,2.6c0-0.3,0.5-0.7,1.5-0.9s1.8-0.4,2.3-0.4s0.9,0.2,1.2,0.5c0.2,0.4,0.4,0.8,0.7,1.4c0.2,0.6,0.5,1.2,0.8,1.9
		c0.7,1.7,1.1,2.7,1.2,2.9s0.2,0.3,0.3,0.3c0.1,0,0.1,0,0.2-0.1c1.2-2.1,2.2-4.1,3-5.9c0.1-0.4,0.5-0.6,1.2-0.8
		c0.6-0.1,1.3-0.2,2.1-0.2s1.2,0.1,1.2,0.3c0,0.1-0.1,0.2-0.2,0.3c-0.1,0.1-0.3,0.2-0.4,0.3C32.7,2.5,32.4,2.8,32,3.3z"/>
	<path class="st0" d="M41.7,1.5l4.2,0.2c1.9,0,3.2-0.2,4-0.7C50,1,50.1,1,50.2,1s0.1,0.1,0.1,0.4s-0.2,0.7-0.5,1.3
		c-0.5,1-1.2,1.4-2.1,1.4l-1.6,0c-0.2,0-0.3,0.1-0.3,0.3c-0.1,2.9-0.2,5.9-0.2,9.3c0,3.3,0.1,5.8,0.4,7.5v0.1c0,0.5-0.5,0.9-1.4,1.2
		c-0.9,0.3-1.8,0.4-2.6,0.4c-0.4,0-0.6-0.1-0.6-0.3c0-0.1,0-0.2,0.1-0.4c0.2-0.4,0.4-2.5,0.6-6.2s0.2-6.5,0.2-8.4l-0.1-3.2
		c0-0.1-0.1-0.2-0.2-0.2C41.7,4.1,41.3,4,40.8,4c-1,0-1.8,0.2-2.3,0.6c-0.1,0.1-0.3,0.1-0.4,0.1s-0.2-0.1-0.2-0.2
		c0-0.2,0.1-0.6,0.4-1c0.2-0.4,0.5-0.8,0.8-1C39.6,1.9,40.5,1.5,41.7,1.5z"/>
	<path class="st0" d="M51.6,11.3c-0.5,0-0.9,0-1.1,0c-0.2,0-0.3,0-0.3-0.2c0-0.1,0.1-0.2,0.2-0.3c1.2-1.1,3.3-1.7,6.3-1.7
		c1,0,1.8,0.1,2.4,0.3l0.3,0.1c0.2,0.1,0.3,0.2,0.3,0.3c0,0.1-0.1,0.2-0.2,0.2c-0.5,0.2-1,0.4-1.5,0.7c-0.5,0.3-0.7,0.6-0.7,0.7
		l0.2,0.2c0.6,0.3,1.1,0.9,1.4,1.7c0.3,0.8,0.5,1.4,0.6,2l0.1,0.9c0,1.9-0.5,3.5-1.6,4.7c-1.1,1.2-2.5,1.9-4.4,1.9
		c-0.9,0-1.7-0.2-2.4-0.5c-0.7-0.3-1.2-0.7-1.5-1.1c-0.3-0.4-0.6-0.9-0.8-1.4c-0.2-0.7-0.3-1.5-0.3-2.2c0-0.8,0.1-1.5,0.4-2.3
		s0.6-1.4,0.9-1.7c0.3-0.4,0.7-0.7,1.2-0.9c0.5-0.3,1-0.4,1.3-0.4c0.3,0,0.5,0.1,0.5,0.2l-0.2,0.3c-0.4,0.5-0.7,1.2-0.9,2
		c-0.2,0.8-0.3,1.5-0.3,2.2c0,0.6,0.1,1.3,0.2,1.9c0.2,0.6,0.3,1.1,0.5,1.4c0.2,0.3,0.4,0.5,0.7,0.7c0.4,0.2,0.8,0.3,1.2,0.3
		c0.4,0,0.8-0.2,1.2-0.5c0.4-0.3,0.7-0.7,0.8-1.3c0.3-1,0.5-2,0.5-3c0-1.6-0.4-2.9-1.2-3.8C54.4,11.7,53.2,11.3,51.6,11.3z"/>
	<path class="st0" d="M71.3,9.3c-0.3,2.1-0.5,4.8-0.5,8c0,2.4,0.1,4,0.3,4.7l0.1,0.4c0,0.3-0.2,0.4-0.6,0.4c-1.5,0-2.4-0.4-2.6-1.3
		c0-0.1-0.1-0.1-0.1-0.1c-0.1,0-0.1,0-0.2,0.1c-0.6,0.8-1.5,1.2-2.8,1.2c-0.7,0-1.4-0.2-2.2-0.5c-0.5-0.2-0.8-0.6-1.1-1.1
		s-0.4-1.2-0.4-2l0.4-6.4c0-1.3-0.1-2.3-0.4-2.9c-0.1-0.2-0.1-0.3-0.1-0.4c0-0.1,0-0.2,0.1-0.2c0.3-0.1,0.7-0.1,1.2-0.1
		c1.9,0,2.8,0.8,2.8,2.3c0,0.5-0.2,1.6-0.6,3.3c-0.4,1.7-0.6,3-0.6,3.7c0,0.7,0.2,1.3,0.5,1.7c0.3,0.4,0.8,0.6,1.3,0.6
		c0.6,0,1-0.2,1.4-0.6c0.3-0.4,0.5-0.8,0.6-1.2l0.1-0.6c0.1-0.7,0.1-1.9,0.1-3.6c0-1.7-0.1-2.8-0.2-3.2c-0.1-0.5-0.2-0.7-0.2-0.9
		c0-0.5,0.4-0.9,1.2-1.2C69.5,9.1,70.2,9,70.8,9C71.1,9,71.3,9.1,71.3,9.3z"/>
	<path class="st0" d="M81.5,14.5l0.1,1c0,0.4-0.3,0.6-1,0.6c-1.4,0-2.1-0.5-2.1-1.6c0-0.3,0.1-0.6,0.2-1c0.1-0.4,0.2-0.8,0.2-1.2
		c0-0.3-0.1-0.6-0.3-0.9c-0.2-0.2-0.5-0.4-0.8-0.4c-0.4,0-0.7,0.1-0.9,0.4s-0.4,0.5-0.5,0.8l-0.1,0.4c-0.1,0.6-0.2,1.6-0.2,3
		c0,1.4,0,2.5,0.1,3.3s0.1,1.4,0.1,1.7c0,0.3,0.1,0.5,0.1,0.5c0,0.5-0.3,0.9-0.9,1.2c-0.6,0.3-1.2,0.5-1.8,0.5
		c-0.6,0-0.9-0.1-0.9-0.4l0.1-0.9c0.3-1.7,0.4-3.9,0.4-6.6c0-2.7-0.1-4.6-0.3-5.5c0-0.2,0.2-0.3,0.6-0.3c1,0,1.7,0.4,2.1,1.1
		c0,0.1,0.1,0.1,0.1,0.1s0.2-0.1,0.4-0.3c0.6-0.5,1.4-0.8,2.3-0.8c0.5,0,1.1,0.1,1.6,0.3c1.1,0.4,1.7,1.4,1.7,2.8L81.5,14.5z"/>
	<path class="st0" d="M83.7,21.4l0.3-6.8c0-1.6-0.2-2.7-0.6-3.3c-0.1-0.2-0.3-0.3-0.4-0.4c-0.1,0-0.2-0.1-0.2-0.2
		c0-0.3,0.5-0.7,1.5-1c1-0.3,1.7-0.5,2.2-0.5c0.5,0,0.7,0.1,0.7,0.3c0,0.4-0.1,1.5-0.2,3.3c-0.1,1.8-0.2,3.7-0.2,5.7
		c0,2,0.1,3.2,0.3,3.7c0.1,0.1,0.1,0.2,0.1,0.3c0,0.3-0.4,0.4-1.1,0.4c-0.7,0-1.5-0.2-2.3-0.6C83.8,22.2,83.7,21.9,83.7,21.4z
		 M86,6.7l-0.7,0c-0.5,0-0.9,0.1-1,0.4c0,0.1-0.1,0.1-0.1,0.1c-0.3,0-0.4-0.4-0.4-1.3s0.1-1.4,0.4-1.6c0.3-0.2,0.7-0.3,1.4-0.3
		c0.7,0,1.1,0.1,1.3,0.3c0.2,0.2,0.4,0.6,0.4,1.1s-0.1,0.9-0.3,1.1C86.8,6.6,86.5,6.7,86,6.7z"/>
	<path class="st0" d="M89.1,22.5c0.3-2.1,0.5-4.6,0.5-7.5c0-2.9-0.1-4.8-0.3-5.7c0-0.3,0.3-0.4,0.9-0.4c0.9,0,1.5,0.3,1.8,1
		c0,0.1,0.1,0.1,0.1,0.1c0.1,0,0.1,0,0.2-0.1C93,9.3,93.9,9,95.2,9c1.3,0,2.3,0.3,3,1c0.7,0.6,1.1,1.6,1.1,2.8
		c0,0.7-0.1,1.8-0.2,3.1c-0.1,1.4-0.2,2.4-0.2,3c0,1.6,0.3,2.7,0.8,3.4c0.1,0.1,0.1,0.2,0.1,0.3c0,0.3-0.3,0.4-0.8,0.4
		c-2.4,0-3.6-1.1-3.6-3.2c0-0.8,0.2-2,0.6-3.4c0.4-1.5,0.6-2.6,0.6-3.3c0-1.6-0.6-2.3-1.9-2.3c-0.6,0-1.1,0.2-1.4,0.6
		c-0.3,0.4-0.5,0.8-0.5,1.3c0,0.5-0.1,1.4-0.1,2.7c0,2,0.1,3.8,0.2,5.3l0.1,0.6c0,0.5-0.4,1-1.1,1.3c-0.7,0.3-1.3,0.5-1.8,0.5
		S89.1,22.7,89.1,22.5z"/>
	<path class="st0" d="M102.7,10.5c0.4-0.4,1-0.8,1.7-1.1c0.7-0.3,1.4-0.5,2-0.5c0.6,0,1.3,0.1,2,0.4c0.1,0,0.1,0,0.2-0.1
		c0.5-0.5,1.2-0.8,2.2-0.8c0.2,0,0.3,0.1,0.3,0.3c0,0,0,0.1-0.1,0.3c0,0.2-0.1,0.4-0.1,0.7c-0.1,0.3-0.1,0.7-0.1,1.1
		c-0.1,1.1-0.2,2.3-0.2,3.7c0,1.3,0,2.7,0,4l0.1,6.1c0,2-0.5,3.6-1.5,4.9c-0.4,0.5-1,1-1.8,1.4c-0.8,0.4-1.8,0.6-2.9,0.6
		c-0.3-0.2-0.4-0.3-0.4-0.5s0.1-0.3,0.3-0.4c1.2-0.6,2.1-1.9,2.6-4c0.5-2.1,0.8-5.3,0.8-9.6l-0.1-4.1l-0.1-2c0-0.2-0.3-0.3-0.8-0.4
		c-0.7,0-1.3,0.2-1.8,0.7c-0.5,0.5-0.8,1.1-1,1.8c-0.3,1.2-0.5,2.2-0.5,3.1s0.1,1.6,0.4,2.3c0.3,0.7,0.8,1,1.5,1
		c0.2,0,0.4,0,0.5-0.1c0.2-0.1,0.3-0.1,0.3-0.1c0.2,0,0.3,0.2,0.3,0.6c0,0.4,0,0.7-0.1,0.9c-0.1,0.2-0.2,0.5-0.3,0.8
		c-0.4,0.6-1.1,1-2.3,1c-1.1,0-1.9-0.4-2.4-1.2c-0.5-0.8-0.8-1.6-0.9-2.2c-0.1-1-0.2-1.6-0.2-2s0-0.6,0-0.7s0.1-0.6,0.1-1.1
		c0.1-0.6,0.2-1.1,0.3-1.6c0.1-0.5,0.4-1,0.7-1.7S102.2,11,102.7,10.5z"/>
	<path class="st0" d="M116.3,6.4h2.1v0.3H116V2.4h0.4V6.4z"/>
	<path class="st0" d="M125,2.4v2.9c0,0.5-0.1,0.8-0.4,1.1c-0.3,0.2-0.7,0.4-1.1,0.4c-0.5,0-0.8-0.1-1.1-0.4s-0.4-0.6-0.4-1.1V2.4
		h0.4v2.9c0,0.4,0.1,0.6,0.3,0.8c0.2,0.2,0.5,0.3,0.8,0.3c0.4,0,0.6-0.1,0.9-0.3c0.2-0.2,0.3-0.5,0.3-0.8V2.4H125z"/>
	<path class="st0" d="M130.3,4.3l1.2-1.8h0.4l-1.4,2.1l1.5,2.2h-0.4l-1.3-1.9l-1.2,1.9h-0.4l1.5-2.2l-1.4-2.1h0.4L130.3,4.3z"/>
	<path class="st0" d="M138.7,2.4v2.9c0,0.5-0.1,0.8-0.4,1.1c-0.3,0.2-0.7,0.4-1.1,0.4c-0.5,0-0.8-0.1-1.1-0.4s-0.4-0.6-0.4-1.1V2.4
		h0.4v2.9c0,0.4,0.1,0.6,0.3,0.8c0.2,0.2,0.5,0.3,0.8,0.3c0.4,0,0.6-0.1,0.9-0.3c0.2-0.2,0.3-0.5,0.3-0.8V2.4H138.7z"/>
	<path class="st0" d="M143.1,4.8v1.9h-0.3V2.4h1.4c0.5,0,0.8,0.1,1.1,0.3s0.4,0.5,0.4,0.9c0,0.2-0.1,0.4-0.2,0.6s-0.3,0.3-0.6,0.4
		c0.3,0.1,0.5,0.2,0.6,0.4s0.2,0.4,0.2,0.6V6c0,0.1,0,0.3,0,0.4s0.1,0.2,0.2,0.3v0.1h-0.4c-0.1-0.1-0.1-0.2-0.2-0.3s0-0.3,0-0.4V5.6
		c0-0.3-0.1-0.5-0.3-0.6c-0.2-0.2-0.4-0.2-0.7-0.2H143.1z M143.1,4.5h1.1c0.4,0,0.7-0.1,0.8-0.2s0.3-0.4,0.3-0.6
		c0-0.3-0.1-0.5-0.3-0.6c-0.2-0.2-0.4-0.2-0.8-0.2h-1.1V4.5z"/>
	<path class="st0" d="M150.8,4.8l1.3-2.4h0.4L151,5.2v1.6h-0.3V5.1l-1.5-2.7h0.4L150.8,4.8z"/>
	<path class="st0" d="M117.2,14l0.1,0.3h0l0.1-0.3l1.3-3.5h0.4l-1.6,4.3h-0.3l-1.6-4.3h0.4L117.2,14z"/>
	<path class="st0" d="M125.1,12.6H123v1.8h2.4v0.3h-2.7v-4.3h2.7v0.3H123v1.6h2.1V12.6z"/>
	<path class="st0" d="M132.3,14.7h-0.3v-2h-2.4v2h-0.3v-4.3h0.3v2h2.4v-2h0.3V14.7z"/>
	<path class="st0" d="M136.8,14.7h-0.4v-4.3h0.4V14.7z"/>
	<path class="st0" d="M143.9,13.4L143.9,13.4c0,0.4-0.2,0.8-0.5,1s-0.6,0.4-1.1,0.4c-0.5,0-0.9-0.2-1.1-0.5s-0.4-0.8-0.4-1.3v-0.7
		c0-0.5,0.1-1,0.4-1.3s0.7-0.5,1.1-0.5c0.5,0,0.8,0.1,1.1,0.4s0.4,0.6,0.5,1l0,0h-0.3c0-0.4-0.2-0.6-0.4-0.8
		c-0.2-0.2-0.5-0.3-0.8-0.3c-0.4,0-0.7,0.1-0.9,0.4c-0.2,0.3-0.3,0.7-0.3,1.1v0.7c0,0.5,0.1,0.8,0.3,1.1c0.2,0.3,0.5,0.4,0.9,0.4
		c0.4,0,0.6-0.1,0.8-0.3c0.2-0.2,0.3-0.5,0.4-0.8H143.9z"/>
	<path class="st0" d="M148.2,14.4h2.1v0.3h-2.5v-4.3h0.4V14.4z"/>
	<path class="st0" d="M156.4,12.6h-2.1v1.8h2.4v0.3H154v-4.3h2.7v0.3h-2.3v1.6h2.1V12.6z"/>
	<path class="st0" d="M119.1,22.7h-0.3v-2h-2.4v2H116v-4.3h0.3v2h2.4v-2h0.3V22.7z"/>
	<path class="st0" d="M123.7,22.7h-0.4v-4.3h0.4V22.7z"/>
	<path class="st0" d="M128.2,20.8v1.9h-0.3v-4.3h1.4c0.5,0,0.8,0.1,1.1,0.3s0.4,0.5,0.4,0.9c0,0.2-0.1,0.4-0.2,0.6s-0.3,0.3-0.6,0.4
		c0.3,0.1,0.5,0.2,0.6,0.4s0.2,0.4,0.2,0.6V22c0,0.1,0,0.3,0,0.4s0.1,0.2,0.2,0.3v0.1h-0.4c-0.1-0.1-0.1-0.2-0.2-0.3s0-0.3,0-0.4
		v-0.4c0-0.3-0.1-0.5-0.3-0.6c-0.2-0.2-0.4-0.2-0.7-0.2H128.2z M128.2,20.5h1.1c0.4,0,0.7-0.1,0.8-0.2s0.3-0.4,0.3-0.6
		c0-0.3-0.1-0.5-0.3-0.6c-0.2-0.2-0.4-0.2-0.8-0.2h-1.1V20.5z"/>
	<path class="st0" d="M137.2,20.6h-2.1v1.8h2.4v0.3h-2.7v-4.3h2.7v0.3h-2.3v1.6h2.1V20.6z"/>
</g>
<g id="Layer_2">
</g>
</svg>
