<?xml version="1.0" encoding="UTF-8"?><!DOCTYPE svg PUBLIC "-//W3C//DTD SVG 1.1//EN" "http://www.w3.org/Graphics/SVG/1.1/DTD/svg11.dtd"><svg xmlns="http://www.w3.org/2000/svg" xmlns:xlink="http://www.w3.org/1999/xlink"><defs><path id="SVGID_1_" d="M0-.3h279.2v2.6H0z"/></defs><symbol id="nx-logo" viewbox="0 0 171.5 48.9"><path class="st0" d="M18.8 19.1v-5.4c0-5.3-.2-8.8-.5-10.6-.1-.2-.1-.4-.1-.5 0-.5.5-.9 1.5-1.3s1.8-.5 2.4-.5c.6 0 .9.2.9.5 0 0 0 .2-.1.5-.7 3.7-1 9.6-1 17.6 0 5.5.3 9.4.9 11.8.1.4.2.6.2.6 0 .6-.7 1.1-2.1 1.6-1.4.4-2.3.6-2.9.6-.9 0-1.5-.2-1.8-.6-.7-.8-1.7-3.2-3.2-7.1-1.5-3.9-2.8-7.5-3.9-10.9l-1.7-5c-.1-.1-.1-.2-.2-.2s-.3.1-.4.3c-.2 2.8-.2 5.6-.2 8.4s0 4.9.1 6.4c0 1.5.1 2.6.2 3.4.1.8.1 1.4.2 1.9s.1.8.2 1c0 .2.1.4.1.4 0 .6-.5 1-1.5 1.3-1 .3-1.9.5-2.7.5-.8 0-1.2-.2-1.2-.5 0-.2 0-.4.1-.7.1-.3.2-.6.3-1 .3-1 .5-3 .6-5.7-.1-2.8 0-6 0-9.5 0-3.6 0-6.1-.1-7.8-.2-2.6-.5-4.4-.8-5.3-.1-.1-.2-.2-.2-.3 0-.5.8-.9 2.4-1.4C5.9 1.1 7.1.9 8 .9h1.6c.4 0 .7.2.8.7.9 3.1 2.1 6.9 3.7 11.1 1.6 4.3 3 7.5 4.2 9.8.1.2.3.2.4.2 0 .1.1-1.2.1-3.6zM49 3.8c-.6.7-1.3 1.5-2 2.4-.7.9-1.9 2.6-3.5 5.1-1.6 2.5-2.5 4-2.5 4.4l.1.3c3.6 8.4 6.8 13.3 9.4 14.7.3.1.5.3.5.5 0 .5-.8 1.1-2.5 1.7-1 .3-1.8.5-2.6.5s-1.3-.1-1.6-.2c-.3-.1-.6-.4-1-.8l-.9-1.2c-.3-.4-.6-1-1-1.9-.4-.8-.8-1.6-1.1-2.3-.3-.7-.8-1.7-1.3-3-.6-1.3-1.1-2.5-1.6-3.5-.1-.1-.2-.2-.3-.2-.1 0-.2.1-.4.3-2.3 3.9-4.1 7.6-5.3 11-.2.7-.8 1.2-2 1.7s-2.2.7-3.5.7c-1.3 0-2-.2-2-.6 0-.2.1-.3.3-.5.2-.2.4-.4.7-.6.2-.2.7-.8 1.5-1.7.8-.9 1.6-1.9 2.4-3 2.1-3 4.3-6.7 6.4-11.1.1-.2.1-.3.1-.4l-.1-.3c-2.3-5.7-4.4-9.6-6.3-11.5-.4-.5-.9-.7-1.3-.9-.3-.2-.5-.4-.5-.7 0-.5.8-1 2.3-1.4C31 1 32.2.8 33.1.8s1.4.3 1.8.8.7 1.3 1.1 2.2c.4.9.8 1.9 1.2 3 1 2.7 1.7 4.2 1.8 4.5.2.3.3.5.4.5.1 0 .2-.1.3-.2 1.8-3.3 3.4-6.3 4.6-9.1.2-.6.8-1 1.8-1.2 1-.2 2.1-.3 3.3-.3 1.2 0 1.8.2 1.8.5 0 .2-.1.4-.3.5-.2.2-.4.3-.6.5-.2.1-.6.6-1.3 1.3zM63.9 1.1l6.5.4c2.9 0 5-.3 6.2-1 .2-.1.3-.2.5-.2.1 0 .2.2.2.6 0 .4-.3 1.1-.8 2.1-.8 1.5-1.8 2.2-3.2 2.2h-2.5c-.2 0-.4.1-.5.4-.2 4.4-.3 9.2-.3 14.3 0 5.1.2 9 .6 11.5v.2c0 .8-.7 1.3-2.1 1.8-1.4.5-2.8.7-4 .7-.6 0-.9-.2-.9-.5 0-.1 0-.3.1-.6.3-.7.6-3.9.9-9.6.3-5.7.4-10 .4-13l-.1-4.9c0-.2-.1-.3-.3-.3C64 5 63.3 5 62.5 5c-1.6 0-2.8.3-3.6 1-.2.2-.4.2-.6.2-.2 0-.3-.1-.3-.4 0-.4.2-.9.6-1.5.4-.6.8-1.2 1.2-1.6 1-1.1 2.4-1.6 4.1-1.6zM79.2 16.2c-.8 0-1.3.1-1.7.1-.3 0-.5-.1-.5-.2s.1-.4.3-.5c1.9-1.8 5.2-2.7 9.7-2.7 1.6 0 2.8.1 3.7.4l.4.1c.4.2.5.3.5.5s-.1.3-.3.4c-.8.2-1.6.6-2.3 1.1s-1.1.9-1.1 1.1l.3.3c1 .5 1.7 1.4 2.2 2.6.5 1.2.8 2.2.9 3.1l.1 1.4c0 3-.8 5.4-2.5 7.3-1.7 1.9-3.9 2.8-6.8 2.8-1.4 0-2.7-.3-3.7-.8-1.1-.5-1.8-1.1-2.3-1.7-.5-.6-.9-1.4-1.2-2.2-.4-1.1-.5-2.3-.5-3.4 0-1.2.2-2.4.6-3.6.4-1.2.9-2.1 1.4-2.7.5-.6 1.1-1 1.8-1.4.8-.4 1.5-.7 2-.7s.8.1.8.3l-.3.5c-.7.8-1.1 1.8-1.4 3.1-.3 1.3-.4 2.4-.4 3.4s.1 1.9.4 2.9c.2 1 .5 1.7.8 2.1.3.5.6.8 1 1.1.6.4 1.2.5 1.8.5.6 0 1.2-.2 1.8-.7s1-1.1 1.3-2c.5-1.5.8-3 .8-4.6 0-2.5-.6-4.5-1.9-5.9-1.3-1.3-3.2-2-5.7-2zM109.6 13.1c-.5 3.2-.8 7.4-.8 12.4 0 3.7.2 6.1.5 7.3l.2.6c0 .4-.3.6-1 .6-2.3 0-3.6-.6-4-1.9 0-.1-.1-.2-.2-.2s-.2.1-.3.2c-.9 1.2-2.4 1.8-4.3 1.8-1.1 0-2.2-.3-3.4-.8-.7-.3-1.3-.9-1.8-1.7-.5-.8-.7-1.8-.7-3l.7-9.9c0-2.1-.2-3.5-.6-4.4-.2-.3-.2-.5-.2-.6 0-.2.1-.3.2-.4.5-.1 1.1-.2 1.8-.2 2.9 0 4.4 1.2 4.4 3.6 0 .8-.3 2.5-.9 5.1-.6 2.7-.9 4.6-.9 5.7s.2 2 .7 2.6c.5.6 1.2.9 2.1.9.9 0 1.6-.3 2.1-.9.5-.6.8-1.3.9-1.9l.1-.9c.1-1 .2-2.9.2-5.5s-.1-4.3-.2-5c-.2-.7-.2-1.1-.2-1.3 0-.8.6-1.3 1.8-1.8 1.2-.4 2.3-.7 3.2-.7.4-.2.6 0 .6.3zM125.5 21.1l.2 1.6c0 .6-.5.9-1.6.9-2.2 0-3.3-.8-3.3-2.5 0-.4.1-.9.3-1.6.2-.7.3-1.3.3-1.8s-.2-1-.5-1.3c-.3-.4-.7-.6-1.3-.6s-1.1.2-1.5.6c-.4.4-.7.8-.7 1.2l-.2.6c-.2.9-.3 2.5-.3 4.7s0 3.9.1 5.1c.1 1.2.1 2.1.2 2.6s.1.7.1.8c0 .8-.5 1.4-1.4 1.8-.9.5-1.9.7-2.8.7-.9 0-1.4-.2-1.4-.6l.2-1.4c.4-2.6.6-6 .6-10.2 0-4.2-.2-7-.5-8.5 0-.4.3-.5.9-.5 1.6 0 2.7.6 3.2 1.7 0 .1.1.2.2.2s.3-.1.6-.4c1-.8 2.2-1.2 3.5-1.2.8 0 1.7.2 2.5.5 1.7.7 2.6 2.1 2.6 4.3v3.3zM128.8 31.8l.5-10.5c0-2.5-.3-4.2-.9-5.1-.2-.3-.4-.5-.6-.7-.2-.1-.3-.2-.3-.4 0-.5.8-1.1 2.3-1.6 1.5-.5 2.6-.8 3.4-.8.7 0 1.1.2 1.1.5 0 .6-.1 2.3-.2 5.1-.2 2.8-.2 5.8-.2 8.8 0 3.1.2 5 .5 5.8.1.2.1.3.1.5 0 .4-.6.6-1.7.6s-2.3-.3-3.5-.9c-.4 0-.5-.5-.5-1.3zm3.6-22.7h-1.1c-.8 0-1.3.2-1.6.6-.1.1-.1.1-.2.1-.4 0-.6-.7-.6-2s.2-2.2.6-2.5c.4-.4 1.1-.5 2.1-.5s1.7.2 2 .5c.4.3.5.9.5 1.7s-.1 1.4-.4 1.7c-.2.2-.6.4-1.3.4zM137.2 33.5c.5-3.2.8-7.1.8-11.7 0-4.5-.1-7.5-.4-8.8 0-.4.5-.6 1.4-.6 1.4 0 2.3.5 2.7 1.6 0 .1.1.1.2.1s.2 0 .3-.1c.9-1 2.4-1.4 4.3-1.4s3.5.5 4.6 1.5c1.1 1 1.7 2.4 1.7 4.3 0 1.1-.1 2.8-.3 4.9-.2 2.1-.3 3.7-.3 4.7 0 2.4.4 4.2 1.2 5.3.1.2.2.3.2.5 0 .4-.4.6-1.3.6-3.7 0-5.6-1.6-5.6-4.9 0-1.3.3-3 .9-5.3.6-2.2.9-4 .9-5.1 0-2.4-1-3.6-3-3.6-1 0-1.7.3-2.2.9-.5.6-.8 1.2-.8 2-.1.7-.1 2.1-.1 4.2 0 3.1.1 5.8.3 8.1l.1 1c0 .8-.5 1.5-1.6 2s-2 .7-2.8.7c-.8-.4-1.2-.6-1.2-.9zM158.1 15c.7-.7 1.5-1.2 2.6-1.7s2.1-.7 3.1-.7 2 .2 3 .7c.1 0 .2 0 .3-.1.8-.8 1.9-1.2 3.4-1.2.4 0 .5.2.5.5 0 0 0 .2-.1.4s-.1.6-.2 1.1c-.1.5-.2 1-.2 1.7-.2 1.7-.3 3.6-.3 5.7v6.2l.1 9.5c0 3-.8 5.5-2.3 7.6-.6.8-1.6 1.5-2.9 2.1-1.3.6-2.8.9-4.5.9-.4-.2-.6-.5-.6-.7 0-.2.2-.4.5-.6 1.9-.9 3.2-2.9 4-6.2.8-3.3 1.2-8.2 1.2-14.8l-.1-6.3-.1-3.1c0-.3-.4-.5-1.3-.6-1.1 0-2 .4-2.7 1.1-.7.7-1.2 1.6-1.5 2.8-.5 1.8-.7 3.4-.7 4.7 0 1.3.2 2.5.7 3.5.4 1 1.2 1.5 2.3 1.5.3 0 .6-.1.8-.2.3-.1.4-.2.5-.2.3 0 .4.3.4.9 0 .6 0 1.1-.1 1.5s-.3.8-.5 1.2c-.6 1-1.8 1.5-3.5 1.5s-3-.6-3.7-1.9c-.8-1.3-1.2-2.4-1.3-3.5-.2-1.5-.3-2.5-.3-3v-1.1c0-.3.1-.9.2-1.7s.3-1.7.5-2.4c.2-.8.6-1.6 1.1-2.6.5-1 1.1-1.8 1.7-2.5z"/><g><path class="st0" d="M1.6 44h2.8v.4H1.1v-5.7h.5V44zM13.1 38.7v3.9c0 .6-.2 1.1-.6 1.4-.4.3-.9.5-1.5.5s-1.1-.2-1.5-.5c-.4-.3-.6-.8-.6-1.4v-3.9h.5v3.9c0 .5.1.9.4 1.1.3.3.7.4 1.1.4.5 0 .9-.1 1.1-.4.3-.3.4-.6.4-1.1v-3.9h.7zM20.2 41.1l1.6-2.4h.6l-1.9 2.8 2 2.9h-.6l-1.7-2.5-1.7 2.5H18l2-2.9-1.9-2.8h.6l1.5 2.4zM31.4 38.7v3.9c0 .6-.2 1.1-.6 1.4-.4.3-.9.5-1.5.5s-1.1-.2-1.5-.5c-.4-.3-.6-.8-.6-1.4v-3.9h.5v3.9c0 .5.1.9.4 1.1.3.3.7.4 1.1.4.5 0 .9-.1 1.1-.4.3-.3.4-.6.4-1.1v-3.9h.7zM37.3 41.8v2.6h-.5v-5.7h1.9c.6 0 1.1.1 1.4.4.3.3.5.7.5 1.2 0 .3-.1.6-.3.8-.2.2-.4.4-.7.5.4.1.6.2.8.5.2.2.2.5.2.9v.5c0 .2 0 .3.1.5 0 .1.1.3.2.3v.1h-.5c-.1-.1-.2-.2-.2-.4s-.1-.3-.1-.5V43c0-.3-.1-.6-.3-.8s-.5-.3-.9-.3h-1.6zm0-.4h1.4c.5 0 .9-.1 1.1-.3.2-.2.4-.5.4-.8 0-.4-.1-.7-.4-.9s-.6-.3-1.1-.3h-1.5v2.3zM47.6 41.8l1.8-3.2h.5l-2.1 3.6v2.1h-.5v-2.1l-2.1-3.6h.5l1.9 3.2zM62.3 43.4l.1.4.1-.4 1.7-4.7h.5l-2.1 5.7h-.4l-2.1-5.7h.5l1.7 4.7zM72.9 41.6h-2.7V44h3.1v.4h-3.6v-5.7h3.6v.4h-3.1v2.1h2.7v.4zM82.4 44.4H82v-2.6h-3.2v2.6h-.5v-5.7h.5v2.7H82v-2.7h.5v5.7zM88.5 44.4H88v-5.7h.5v5.7zM98 42.6c0 .6-.2 1-.6 1.4-.4.3-.8.5-1.4.5-.6 0-1.1-.2-1.5-.7-.4-.5-.6-1-.6-1.8v-.9c0-.7.2-1.3.6-1.8s.9-.7 1.5-.7 1.1.2 1.4.5.6.8.6 1.4h-.4c-.1-.5-.2-.8-.5-1.1s-.6-.4-1.1-.4c-.5 0-.9.2-1.2.6-.3.4-.5.9-.5 1.5v.9c0 .6.2 1.1.5 1.5.3.4.7.6 1.2.6s.9-.1 1.1-.4c.3-.2.4-.6.5-1.1h.4zM103.7 44h2.8v.4h-3.3v-5.7h.5V44zM114.7 41.6H112V44h3.1v.4h-3.6v-5.7h3.6v.4H112v2.1h2.7v.4zM130.2 44.4h-.5v-2.6h-3.2v2.6h-.5v-5.7h.5v2.7h3.2v-2.7h.5v5.7zM136.3 44.4h-.5v-5.7h.5v5.7zM142.3 41.8v2.6h-.5v-5.7h1.9c.6 0 1.1.1 1.4.4.3.3.5.7.5 1.2 0 .3-.1.6-.3.8-.2.2-.4.4-.7.5.4.1.6.2.8.5.2.2.2.5.2.9v.5c0 .2 0 .3.1.5 0 .1.1.3.2.3v.1h-.5c-.1-.1-.2-.2-.2-.4s-.1-.3-.1-.5V43c0-.3-.1-.6-.3-.8s-.5-.3-.9-.3h-1.6zm0-.4h1.4c.5 0 .9-.1 1.1-.3.2-.2.4-.5.4-.8 0-.4-.1-.7-.4-.9-.2-.2-.6-.3-1.1-.3h-1.5v2.3zM154.3 41.6h-2.7V44h3.1v.4h-3.6v-5.7h3.6v.4h-3.1v2.1h2.7v.4z"/></g></symbol><symbol viewbox="0 0 159.3 31.9" id="nx-logo-mob"><g id="Layer_1"> <path class="st0" d="M12.5,13.2l0-3.5c0-3.4-0.1-5.7-0.3-6.8C12,2.7,12,2.6,12,2.5c0-0.3,0.3-0.6,1-0.8c0.7-0.2,1.2-0.3,1.6-0.3 c0.4,0,0.6,0.1,0.6,0.3c0,0,0,0.1-0.1,0.3c-0.4,2.4-0.7,6.2-0.7,11.4c0,3.6,0.2,6.1,0.6,7.7c0.1,0.3,0.1,0.4,0.1,0.4 c0,0.4-0.4,0.7-1.3,1c-0.9,0.3-1.5,0.4-1.9,0.4c-0.6,0-1-0.1-1.2-0.4c-0.4-0.5-1.1-2.1-2.1-4.6c-1-2.5-1.8-4.9-2.5-7L5,7.6 c0-0.1-0.1-0.1-0.1-0.1c-0.1,0-0.2,0.1-0.3,0.2C4.5,9.4,4.5,11.2,4.5,13c0,1.8,0,3.2,0,4.2c0,1,0.1,1.7,0.1,2.2 c0,0.5,0.1,0.9,0.1,1.2c0,0.3,0.1,0.5,0.1,0.7c0,0.1,0,0.2,0,0.3c0,0.4-0.3,0.7-1,0.9s-1.2,0.3-1.7,0.3s-0.8-0.1-0.8-0.3 c0-0.1,0-0.3,0.1-0.4s0.1-0.4,0.2-0.7c0.2-0.7,0.3-1.9,0.4-3.7c0.1-1.8,0.1-3.8,0.1-6.1s0-4-0.1-5C2.1,4.7,1.9,3.5,1.6,3 C1.6,2.9,1.5,2.8,1.5,2.7c0-0.3,0.5-0.6,1.5-0.9c1-0.3,1.8-0.4,2.4-0.4c0.6,0,0.9,0,1,0c0.3,0,0.4,0.1,0.5,0.5 c0.6,2,1.4,4.4,2.4,7.2c1,2.8,1.9,4.9,2.7,6.3c0.1,0.1,0.2,0.1,0.2,0.1C12.4,15.5,12.5,14.7,12.5,13.2z"/> <path class="st0" d="M32,3.3c-0.4,0.5-0.9,1-1.3,1.6c-0.5,0.6-1.2,1.7-2.3,3.3c-1.1,1.6-1.6,2.6-1.6,2.9l0.1,0.2 c2.4,5.4,4.4,8.6,6.1,9.5c0.2,0.1,0.3,0.2,0.3,0.3c0,0.3-0.5,0.7-1.6,1.1c-0.6,0.2-1.2,0.3-1.7,0.3c-0.5,0-0.8,0-1-0.1 c-0.2-0.1-0.4-0.3-0.6-0.5c-0.2-0.3-0.4-0.5-0.6-0.8s-0.4-0.7-0.6-1.2s-0.5-1-0.7-1.5s-0.5-1.1-0.9-1.9c-0.4-0.8-0.7-1.6-1-2.3 C24.6,14,24.5,14,24.4,14c-0.1,0-0.2,0.1-0.2,0.2c-1.5,2.5-2.6,4.9-3.4,7.1c-0.1,0.4-0.5,0.8-1.3,1.1c-0.8,0.3-1.6,0.5-2.4,0.5 c-0.9,0-1.3-0.1-1.3-0.4c0-0.1,0.1-0.2,0.2-0.3c0.1-0.1,0.3-0.2,0.4-0.4c0.2-0.1,0.5-0.5,1-1.1c0.5-0.6,1-1.2,1.5-1.9 c1.4-1.9,2.8-4.3,4.2-7.2c0.1-0.1,0.1-0.2,0.1-0.3l-0.1-0.2c-1.5-3.7-2.9-6.2-4.1-7.5c-0.3-0.3-0.6-0.5-0.8-0.6 C18,3,17.9,2.8,17.9,2.6c0-0.3,0.5-0.7,1.5-0.9s1.8-0.4,2.3-0.4s0.9,0.2,1.2,0.5c0.2,0.4,0.4,0.8,0.7,1.4c0.2,0.6,0.5,1.2,0.8,1.9 c0.7,1.7,1.1,2.7,1.2,2.9s0.2,0.3,0.3,0.3c0.1,0,0.1,0,0.2-0.1c1.2-2.1,2.2-4.1,3-5.9c0.1-0.4,0.5-0.6,1.2-0.8 c0.6-0.1,1.3-0.2,2.1-0.2s1.2,0.1,1.2,0.3c0,0.1-0.1,0.2-0.2,0.3c-0.1,0.1-0.3,0.2-0.4,0.3C32.7,2.5,32.4,2.8,32,3.3z"/> <path class="st0" d="M41.7,1.5l4.2,0.2c1.9,0,3.2-0.2,4-0.7C50,1,50.1,1,50.2,1s0.1,0.1,0.1,0.4s-0.2,0.7-0.5,1.3 c-0.5,1-1.2,1.4-2.1,1.4l-1.6,0c-0.2,0-0.3,0.1-0.3,0.3c-0.1,2.9-0.2,5.9-0.2,9.3c0,3.3,0.1,5.8,0.4,7.5v0.1c0,0.5-0.5,0.9-1.4,1.2 c-0.9,0.3-1.8,0.4-2.6,0.4c-0.4,0-0.6-0.1-0.6-0.3c0-0.1,0-0.2,0.1-0.4c0.2-0.4,0.4-2.5,0.6-6.2s0.2-6.5,0.2-8.4l-0.1-3.2 c0-0.1-0.1-0.2-0.2-0.2C41.7,4.1,41.3,4,40.8,4c-1,0-1.8,0.2-2.3,0.6c-0.1,0.1-0.3,0.1-0.4,0.1s-0.2-0.1-0.2-0.2 c0-0.2,0.1-0.6,0.4-1c0.2-0.4,0.5-0.8,0.8-1C39.6,1.9,40.5,1.5,41.7,1.5z"/> <path class="st0" d="M51.6,11.3c-0.5,0-0.9,0-1.1,0c-0.2,0-0.3,0-0.3-0.2c0-0.1,0.1-0.2,0.2-0.3c1.2-1.1,3.3-1.7,6.3-1.7 c1,0,1.8,0.1,2.4,0.3l0.3,0.1c0.2,0.1,0.3,0.2,0.3,0.3c0,0.1-0.1,0.2-0.2,0.2c-0.5,0.2-1,0.4-1.5,0.7c-0.5,0.3-0.7,0.6-0.7,0.7 l0.2,0.2c0.6,0.3,1.1,0.9,1.4,1.7c0.3,0.8,0.5,1.4,0.6,2l0.1,0.9c0,1.9-0.5,3.5-1.6,4.7c-1.1,1.2-2.5,1.9-4.4,1.9 c-0.9,0-1.7-0.2-2.4-0.5c-0.7-0.3-1.2-0.7-1.5-1.1c-0.3-0.4-0.6-0.9-0.8-1.4c-0.2-0.7-0.3-1.5-0.3-2.2c0-0.8,0.1-1.5,0.4-2.3 s0.6-1.4,0.9-1.7c0.3-0.4,0.7-0.7,1.2-0.9c0.5-0.3,1-0.4,1.3-0.4c0.3,0,0.5,0.1,0.5,0.2l-0.2,0.3c-0.4,0.5-0.7,1.2-0.9,2 c-0.2,0.8-0.3,1.5-0.3,2.2c0,0.6,0.1,1.3,0.2,1.9c0.2,0.6,0.3,1.1,0.5,1.4c0.2,0.3,0.4,0.5,0.7,0.7c0.4,0.2,0.8,0.3,1.2,0.3 c0.4,0,0.8-0.2,1.2-0.5c0.4-0.3,0.7-0.7,0.8-1.3c0.3-1,0.5-2,0.5-3c0-1.6-0.4-2.9-1.2-3.8C54.4,11.7,53.2,11.3,51.6,11.3z"/> <path class="st0" d="M71.3,9.3c-0.3,2.1-0.5,4.8-0.5,8c0,2.4,0.1,4,0.3,4.7l0.1,0.4c0,0.3-0.2,0.4-0.6,0.4c-1.5,0-2.4-0.4-2.6-1.3 c0-0.1-0.1-0.1-0.1-0.1c-0.1,0-0.1,0-0.2,0.1c-0.6,0.8-1.5,1.2-2.8,1.2c-0.7,0-1.4-0.2-2.2-0.5c-0.5-0.2-0.8-0.6-1.1-1.1 s-0.4-1.2-0.4-2l0.4-6.4c0-1.3-0.1-2.3-0.4-2.9c-0.1-0.2-0.1-0.3-0.1-0.4c0-0.1,0-0.2,0.1-0.2c0.3-0.1,0.7-0.1,1.2-0.1 c1.9,0,2.8,0.8,2.8,2.3c0,0.5-0.2,1.6-0.6,3.3c-0.4,1.7-0.6,3-0.6,3.7c0,0.7,0.2,1.3,0.5,1.7c0.3,0.4,0.8,0.6,1.3,0.6 c0.6,0,1-0.2,1.4-0.6c0.3-0.4,0.5-0.8,0.6-1.2l0.1-0.6c0.1-0.7,0.1-1.9,0.1-3.6c0-1.7-0.1-2.8-0.2-3.2c-0.1-0.5-0.2-0.7-0.2-0.9 c0-0.5,0.4-0.9,1.2-1.2C69.5,9.1,70.2,9,70.8,9C71.1,9,71.3,9.1,71.3,9.3z"/> <path class="st0" d="M81.5,14.5l0.1,1c0,0.4-0.3,0.6-1,0.6c-1.4,0-2.1-0.5-2.1-1.6c0-0.3,0.1-0.6,0.2-1c0.1-0.4,0.2-0.8,0.2-1.2 c0-0.3-0.1-0.6-0.3-0.9c-0.2-0.2-0.5-0.4-0.8-0.4c-0.4,0-0.7,0.1-0.9,0.4s-0.4,0.5-0.5,0.8l-0.1,0.4c-0.1,0.6-0.2,1.6-0.2,3 c0,1.4,0,2.5,0.1,3.3s0.1,1.4,0.1,1.7c0,0.3,0.1,0.5,0.1,0.5c0,0.5-0.3,0.9-0.9,1.2c-0.6,0.3-1.2,0.5-1.8,0.5 c-0.6,0-0.9-0.1-0.9-0.4l0.1-0.9c0.3-1.7,0.4-3.9,0.4-6.6c0-2.7-0.1-4.6-0.3-5.5c0-0.2,0.2-0.3,0.6-0.3c1,0,1.7,0.4,2.1,1.1 c0,0.1,0.1,0.1,0.1,0.1s0.2-0.1,0.4-0.3c0.6-0.5,1.4-0.8,2.3-0.8c0.5,0,1.1,0.1,1.6,0.3c1.1,0.4,1.7,1.4,1.7,2.8L81.5,14.5z"/> <path class="st0" d="M83.7,21.4l0.3-6.8c0-1.6-0.2-2.7-0.6-3.3c-0.1-0.2-0.3-0.3-0.4-0.4c-0.1,0-0.2-0.1-0.2-0.2 c0-0.3,0.5-0.7,1.5-1c1-0.3,1.7-0.5,2.2-0.5c0.5,0,0.7,0.1,0.7,0.3c0,0.4-0.1,1.5-0.2,3.3c-0.1,1.8-0.2,3.7-0.2,5.7 c0,2,0.1,3.2,0.3,3.7c0.1,0.1,0.1,0.2,0.1,0.3c0,0.3-0.4,0.4-1.1,0.4c-0.7,0-1.5-0.2-2.3-0.6C83.8,22.2,83.7,21.9,83.7,21.4z M86,6.7l-0.7,0c-0.5,0-0.9,0.1-1,0.4c0,0.1-0.1,0.1-0.1,0.1c-0.3,0-0.4-0.4-0.4-1.3s0.1-1.4,0.4-1.6c0.3-0.2,0.7-0.3,1.4-0.3 c0.7,0,1.1,0.1,1.3,0.3c0.2,0.2,0.4,0.6,0.4,1.1s-0.1,0.9-0.3,1.1C86.8,6.6,86.5,6.7,86,6.7z"/> <path class="st0" d="M89.1,22.5c0.3-2.1,0.5-4.6,0.5-7.5c0-2.9-0.1-4.8-0.3-5.7c0-0.3,0.3-0.4,0.9-0.4c0.9,0,1.5,0.3,1.8,1 c0,0.1,0.1,0.1,0.1,0.1c0.1,0,0.1,0,0.2-0.1C93,9.3,93.9,9,95.2,9c1.3,0,2.3,0.3,3,1c0.7,0.6,1.1,1.6,1.1,2.8 c0,0.7-0.1,1.8-0.2,3.1c-0.1,1.4-0.2,2.4-0.2,3c0,1.6,0.3,2.7,0.8,3.4c0.1,0.1,0.1,0.2,0.1,0.3c0,0.3-0.3,0.4-0.8,0.4 c-2.4,0-3.6-1.1-3.6-3.2c0-0.8,0.2-2,0.6-3.4c0.4-1.5,0.6-2.6,0.6-3.3c0-1.6-0.6-2.3-1.9-2.3c-0.6,0-1.1,0.2-1.4,0.6 c-0.3,0.4-0.5,0.8-0.5,1.3c0,0.5-0.1,1.4-0.1,2.7c0,2,0.1,3.8,0.2,5.3l0.1,0.6c0,0.5-0.4,1-1.1,1.3c-0.7,0.3-1.3,0.5-1.8,0.5 S89.1,22.7,89.1,22.5z"/> <path class="st0" d="M102.7,10.5c0.4-0.4,1-0.8,1.7-1.1c0.7-0.3,1.4-0.5,2-0.5c0.6,0,1.3,0.1,2,0.4c0.1,0,0.1,0,0.2-0.1 c0.5-0.5,1.2-0.8,2.2-0.8c0.2,0,0.3,0.1,0.3,0.3c0,0,0,0.1-0.1,0.3c0,0.2-0.1,0.4-0.1,0.7c-0.1,0.3-0.1,0.7-0.1,1.1 c-0.1,1.1-0.2,2.3-0.2,3.7c0,1.3,0,2.7,0,4l0.1,6.1c0,2-0.5,3.6-1.5,4.9c-0.4,0.5-1,1-1.8,1.4c-0.8,0.4-1.8,0.6-2.9,0.6 c-0.3-0.2-0.4-0.3-0.4-0.5s0.1-0.3,0.3-0.4c1.2-0.6,2.1-1.9,2.6-4c0.5-2.1,0.8-5.3,0.8-9.6l-0.1-4.1l-0.1-2c0-0.2-0.3-0.3-0.8-0.4 c-0.7,0-1.3,0.2-1.8,0.7c-0.5,0.5-0.8,1.1-1,1.8c-0.3,1.2-0.5,2.2-0.5,3.1s0.1,1.6,0.4,2.3c0.3,0.7,0.8,1,1.5,1 c0.2,0,0.4,0,0.5-0.1c0.2-0.1,0.3-0.1,0.3-0.1c0.2,0,0.3,0.2,0.3,0.6c0,0.4,0,0.7-0.1,0.9c-0.1,0.2-0.2,0.5-0.3,0.8 c-0.4,0.6-1.1,1-2.3,1c-1.1,0-1.9-0.4-2.4-1.2c-0.5-0.8-0.8-1.6-0.9-2.2c-0.1-1-0.2-1.6-0.2-2s0-0.6,0-0.7s0.1-0.6,0.1-1.1 c0.1-0.6,0.2-1.1,0.3-1.6c0.1-0.5,0.4-1,0.7-1.7S102.2,11,102.7,10.5z"/> <path class="st0" d="M116.3,6.4h2.1v0.3H116V2.4h0.4V6.4z"/> <path class="st0" d="M125,2.4v2.9c0,0.5-0.1,0.8-0.4,1.1c-0.3,0.2-0.7,0.4-1.1,0.4c-0.5,0-0.8-0.1-1.1-0.4s-0.4-0.6-0.4-1.1V2.4 h0.4v2.9c0,0.4,0.1,0.6,0.3,0.8c0.2,0.2,0.5,0.3,0.8,0.3c0.4,0,0.6-0.1,0.9-0.3c0.2-0.2,0.3-0.5,0.3-0.8V2.4H125z"/> <path class="st0" d="M130.3,4.3l1.2-1.8h0.4l-1.4,2.1l1.5,2.2h-0.4l-1.3-1.9l-1.2,1.9h-0.4l1.5-2.2l-1.4-2.1h0.4L130.3,4.3z"/> <path class="st0" d="M138.7,2.4v2.9c0,0.5-0.1,0.8-0.4,1.1c-0.3,0.2-0.7,0.4-1.1,0.4c-0.5,0-0.8-0.1-1.1-0.4s-0.4-0.6-0.4-1.1V2.4 h0.4v2.9c0,0.4,0.1,0.6,0.3,0.8c0.2,0.2,0.5,0.3,0.8,0.3c0.4,0,0.6-0.1,0.9-0.3c0.2-0.2,0.3-0.5,0.3-0.8V2.4H138.7z"/> <path class="st0" d="M143.1,4.8v1.9h-0.3V2.4h1.4c0.5,0,0.8,0.1,1.1,0.3s0.4,0.5,0.4,0.9c0,0.2-0.1,0.4-0.2,0.6s-0.3,0.3-0.6,0.4 c0.3,0.1,0.5,0.2,0.6,0.4s0.2,0.4,0.2,0.6V6c0,0.1,0,0.3,0,0.4s0.1,0.2,0.2,0.3v0.1h-0.4c-0.1-0.1-0.1-0.2-0.2-0.3s0-0.3,0-0.4V5.6 c0-0.3-0.1-0.5-0.3-0.6c-0.2-0.2-0.4-0.2-0.7-0.2H143.1z M143.1,4.5h1.1c0.4,0,0.7-0.1,0.8-0.2s0.3-0.4,0.3-0.6 c0-0.3-0.1-0.5-0.3-0.6c-0.2-0.2-0.4-0.2-0.8-0.2h-1.1V4.5z"/> <path class="st0" d="M150.8,4.8l1.3-2.4h0.4L151,5.2v1.6h-0.3V5.1l-1.5-2.7h0.4L150.8,4.8z"/> <path class="st0" d="M117.2,14l0.1,0.3h0l0.1-0.3l1.3-3.5h0.4l-1.6,4.3h-0.3l-1.6-4.3h0.4L117.2,14z"/> <path class="st0" d="M125.1,12.6H123v1.8h2.4v0.3h-2.7v-4.3h2.7v0.3H123v1.6h2.1V12.6z"/> <path class="st0" d="M132.3,14.7h-0.3v-2h-2.4v2h-0.3v-4.3h0.3v2h2.4v-2h0.3V14.7z"/> <path class="st0" d="M136.8,14.7h-0.4v-4.3h0.4V14.7z"/> <path class="st0" d="M143.9,13.4L143.9,13.4c0,0.4-0.2,0.8-0.5,1s-0.6,0.4-1.1,0.4c-0.5,0-0.9-0.2-1.1-0.5s-0.4-0.8-0.4-1.3v-0.7 c0-0.5,0.1-1,0.4-1.3s0.7-0.5,1.1-0.5c0.5,0,0.8,0.1,1.1,0.4s0.4,0.6,0.5,1l0,0h-0.3c0-0.4-0.2-0.6-0.4-0.8 c-0.2-0.2-0.5-0.3-0.8-0.3c-0.4,0-0.7,0.1-0.9,0.4c-0.2,0.3-0.3,0.7-0.3,1.1v0.7c0,0.5,0.1,0.8,0.3,1.1c0.2,0.3,0.5,0.4,0.9,0.4 c0.4,0,0.6-0.1,0.8-0.3c0.2-0.2,0.3-0.5,0.4-0.8H143.9z"/> <path class="st0" d="M148.2,14.4h2.1v0.3h-2.5v-4.3h0.4V14.4z"/> <path class="st0" d="M156.4,12.6h-2.1v1.8h2.4v0.3H154v-4.3h2.7v0.3h-2.3v1.6h2.1V12.6z"/> <path class="st0" d="M119.1,22.7h-0.3v-2h-2.4v2H116v-4.3h0.3v2h2.4v-2h0.3V22.7z"/> <path class="st0" d="M123.7,22.7h-0.4v-4.3h0.4V22.7z"/> <path class="st0" d="M128.2,20.8v1.9h-0.3v-4.3h1.4c0.5,0,0.8,0.1,1.1,0.3s0.4,0.5,0.4,0.9c0,0.2-0.1,0.4-0.2,0.6s-0.3,0.3-0.6,0.4 c0.3,0.1,0.5,0.2,0.6,0.4s0.2,0.4,0.2,0.6V22c0,0.1,0,0.3,0,0.4s0.1,0.2,0.2,0.3v0.1h-0.4c-0.1-0.1-0.1-0.2-0.2-0.3s0-0.3,0-0.4 v-0.4c0-0.3-0.1-0.5-0.3-0.6c-0.2-0.2-0.4-0.2-0.7-0.2H128.2z M128.2,20.5h1.1c0.4,0,0.7-0.1,0.8-0.2s0.3-0.4,0.3-0.6 c0-0.3-0.1-0.5-0.3-0.6c-0.2-0.2-0.4-0.2-0.8-0.2h-1.1V20.5z"/> <path class="st0" d="M137.2,20.6h-2.1v1.8h2.4v0.3h-2.7v-4.3h2.7v0.3h-2.3v1.6h2.1V20.6z"/> </g></symbol></svg>